<mxfile host="app.diagrams.net" modified="2024-06-07T17:12:54.682Z" agent="Mozilla/5.0 (X11; Linux x86_64; rv:126.0) Gecko/20100101 Firefox/126.0" etag="Xe7CLCYn4MmeI_K6hGjn" version="24.5.2" type="device">
  <diagram name="Page-1" id="ngOype1_wpGtnjftldbr">
    <mxGraphModel dx="1734" dy="2296" grid="1" gridSize="10" guides="1" tooltips="1" connect="1" arrows="1" fold="1" page="1" pageScale="1" pageWidth="850" pageHeight="1100" math="0" shadow="0">
      <root>
        <mxCell id="0" />
        <mxCell id="1" parent="0" />
        <mxCell id="TwQxaWGDPkObcvWWfGEG-5" value="" style="verticalLabelPosition=bottom;html=1;verticalAlign=top;align=center;strokeColor=none;fillColor=#00BEF2;shape=mxgraph.azure.mobile;pointerEvents=1;" vertex="1" parent="1">
          <mxGeometry x="20" y="220" width="160" height="260" as="geometry" />
        </mxCell>
        <mxCell id="TwQxaWGDPkObcvWWfGEG-9" value="" style="image;html=1;image=img/lib/clip_art/computers/Server_Rack_128x128.png" vertex="1" parent="1">
          <mxGeometry x="630" y="200" width="150" height="290" as="geometry" />
        </mxCell>
        <mxCell id="TwQxaWGDPkObcvWWfGEG-23" style="edgeStyle=none;curved=1;rounded=0;orthogonalLoop=1;jettySize=auto;html=1;entryX=1;entryY=0.5;entryDx=0;entryDy=0;fontSize=12;startSize=8;endSize=8;startArrow=classic;startFill=1;" edge="1" parent="1" source="TwQxaWGDPkObcvWWfGEG-13" target="TwQxaWGDPkObcvWWfGEG-20">
          <mxGeometry relative="1" as="geometry" />
        </mxCell>
        <mxCell id="TwQxaWGDPkObcvWWfGEG-29" style="edgeStyle=none;curved=1;rounded=0;orthogonalLoop=1;jettySize=auto;html=1;exitX=1;exitY=1;exitDx=0;exitDy=0;fontSize=12;startSize=8;endSize=8;" edge="1" parent="1" source="TwQxaWGDPkObcvWWfGEG-13" target="TwQxaWGDPkObcvWWfGEG-16">
          <mxGeometry relative="1" as="geometry" />
        </mxCell>
        <mxCell id="TwQxaWGDPkObcvWWfGEG-13" value="server" style="ellipse;whiteSpace=wrap;html=1;aspect=fixed;" vertex="1" parent="1">
          <mxGeometry x="680" y="460" width="80" height="80" as="geometry" />
        </mxCell>
        <mxCell id="TwQxaWGDPkObcvWWfGEG-14" value="auth server consumer" style="ellipse;whiteSpace=wrap;html=1;aspect=fixed;" vertex="1" parent="1">
          <mxGeometry x="1155" y="140" width="80" height="80" as="geometry" />
        </mxCell>
        <mxCell id="TwQxaWGDPkObcvWWfGEG-15" value="" style="image;html=1;image=img/lib/clip_art/computers/Server_Rack_128x128.png" vertex="1" parent="1">
          <mxGeometry x="1120" y="-170" width="150" height="290" as="geometry" />
        </mxCell>
        <mxCell id="TwQxaWGDPkObcvWWfGEG-16" value="" style="image;html=1;image=img/lib/clip_art/computers/Server_Rack_128x128.png" vertex="1" parent="1">
          <mxGeometry x="1120" y="550" width="150" height="290" as="geometry" />
        </mxCell>
        <mxCell id="TwQxaWGDPkObcvWWfGEG-17" value="Auth" style="text;html=1;align=center;verticalAlign=middle;resizable=0;points=[];autosize=1;strokeColor=none;fillColor=none;fontSize=16;" vertex="1" parent="1">
          <mxGeometry x="1165" y="101" width="60" height="30" as="geometry" />
        </mxCell>
        <mxCell id="TwQxaWGDPkObcvWWfGEG-18" value="DB" style="text;html=1;align=center;verticalAlign=middle;resizable=0;points=[];autosize=1;strokeColor=none;fillColor=none;fontSize=16;" vertex="1" parent="1">
          <mxGeometry x="1170" y="830" width="50" height="30" as="geometry" />
        </mxCell>
        <mxCell id="TwQxaWGDPkObcvWWfGEG-20" value="client" style="ellipse;whiteSpace=wrap;html=1;aspect=fixed;" vertex="1" parent="1">
          <mxGeometry x="60" y="500" width="80" height="80" as="geometry" />
        </mxCell>
        <mxCell id="TwQxaWGDPkObcvWWfGEG-24" value="LOGIN " style="text;html=1;align=center;verticalAlign=middle;whiteSpace=wrap;rounded=0;fontSize=16;" vertex="1" parent="1">
          <mxGeometry x="280" y="270" width="60" height="30" as="geometry" />
        </mxCell>
        <mxCell id="TwQxaWGDPkObcvWWfGEG-25" style="edgeStyle=none;curved=1;rounded=0;orthogonalLoop=1;jettySize=auto;html=1;entryX=0.125;entryY=0.625;entryDx=0;entryDy=0;entryPerimeter=0;fontSize=12;startSize=8;endSize=8;startArrow=none;startFill=0;" edge="1" parent="1" source="TwQxaWGDPkObcvWWfGEG-13" target="TwQxaWGDPkObcvWWfGEG-14">
          <mxGeometry relative="1" as="geometry" />
        </mxCell>
        <mxCell id="TwQxaWGDPkObcvWWfGEG-30" value="" style="verticalLabelPosition=bottom;html=1;verticalAlign=top;align=center;strokeColor=none;fillColor=#00BEF2;shape=mxgraph.azure.mobile;pointerEvents=1;" vertex="1" parent="1">
          <mxGeometry x="20" y="650" width="160" height="260" as="geometry" />
        </mxCell>
        <mxCell id="TwQxaWGDPkObcvWWfGEG-31" value="client" style="ellipse;whiteSpace=wrap;html=1;aspect=fixed;" vertex="1" parent="1">
          <mxGeometry x="100" y="940" width="80" height="80" as="geometry" />
        </mxCell>
        <mxCell id="TwQxaWGDPkObcvWWfGEG-32" style="edgeStyle=none;curved=1;rounded=0;orthogonalLoop=1;jettySize=auto;html=1;entryX=-0.014;entryY=0.659;entryDx=0;entryDy=0;entryPerimeter=0;fontSize=12;startSize=8;endSize=8;" edge="1" parent="1" source="TwQxaWGDPkObcvWWfGEG-31" target="TwQxaWGDPkObcvWWfGEG-13">
          <mxGeometry relative="1" as="geometry" />
        </mxCell>
        <mxCell id="TwQxaWGDPkObcvWWfGEG-33" value="LOGIN " style="text;html=1;align=center;verticalAlign=middle;whiteSpace=wrap;rounded=0;fontSize=16;" vertex="1" parent="1">
          <mxGeometry x="365" y="460" width="60" height="30" as="geometry" />
        </mxCell>
        <mxCell id="TwQxaWGDPkObcvWWfGEG-36" value="Dispatcher" style="triangle;whiteSpace=wrap;html=1;" vertex="1" parent="1">
          <mxGeometry x="790" y="460" width="60" height="80" as="geometry" />
        </mxCell>
        <mxCell id="TwQxaWGDPkObcvWWfGEG-37" value="" style="whiteSpace=wrap;html=1;aspect=fixed;" vertex="1" parent="1">
          <mxGeometry x="680" y="550" width="80" height="80" as="geometry" />
        </mxCell>
        <mxCell id="TwQxaWGDPkObcvWWfGEG-38" value="assembler" style="whiteSpace=wrap;html=1;aspect=fixed;" vertex="1" parent="1">
          <mxGeometry x="1050" y="120" width="80" height="80" as="geometry" />
        </mxCell>
      </root>
    </mxGraphModel>
  </diagram>
</mxfile>
